<mxfile host="65bd71144e">
    <diagram id="e4D7jmNhMaVTa04ubELZ" name="Main">
        <mxGraphModel dx="2450" dy="1272" grid="1" gridSize="10" guides="1" tooltips="1" connect="1" arrows="1" fold="1" page="1" pageScale="1" pageWidth="850" pageHeight="1100" math="0" shadow="0">
            <root>
                <mxCell id="0"/>
                <mxCell id="1" parent="0"/>
                <mxCell id="2" value="Architectural Design" style="shape=umlFrame;whiteSpace=wrap;html=1;width=130;height=30;" parent="1" vertex="1">
                    <mxGeometry x="-140" y="330" width="1140" height="510" as="geometry"/>
                </mxCell>
                <mxCell id="3" value="&lt;blockquote style=&quot;margin: 0 0 0 40px; border: none; padding: 0px;&quot;&gt;&lt;/blockquote&gt;&lt;blockquote style=&quot;margin: 0 0 0 40px; border: none; padding: 0px;&quot;&gt;&lt;/blockquote&gt;&lt;pre&gt; Project: Funny Farm&lt;br&gt; Author: Sang, Tan Truong&lt;br&gt; File: ArchitecturalDesign.drawio&lt;/pre&gt;&lt;blockquote style=&quot;margin: 0 0 0 40px; border: none; padding: 0px;&quot;&gt;&lt;/blockquote&gt;&lt;blockquote style=&quot;margin: 0 0 0 40px; border: none; padding: 0px;&quot;&gt;&lt;/blockquote&gt;" style="rounded=1;whiteSpace=wrap;html=1;fillStyle=auto;pointerEvents=0;strokeColor=#1d3cd7;fontFamily=Helvetica;fontSize=12;fontColor=#333333;fillColor=none;gradientColor=none;gradientDirection=west;align=left;" parent="1" vertex="1">
                    <mxGeometry x="-120" y="760" width="260" height="60" as="geometry"/>
                </mxCell>
                <mxCell id="35" style="edgeStyle=orthogonalEdgeStyle;html=1;exitX=1;exitY=0.25;exitDx=0;exitDy=0;entryX=0.5;entryY=0;entryDx=0;entryDy=0;" edge="1" parent="1" source="4" target="6">
                    <mxGeometry relative="1" as="geometry">
                        <Array as="points">
                            <mxPoint x="425" y="418"/>
                        </Array>
                    </mxGeometry>
                </mxCell>
                <mxCell id="42" value="commands" style="edgeLabel;html=1;align=center;verticalAlign=middle;resizable=0;points=[];" vertex="1" connectable="0" parent="35">
                    <mxGeometry x="0.3421" y="2" relative="1" as="geometry">
                        <mxPoint as="offset"/>
                    </mxGeometry>
                </mxCell>
                <mxCell id="4" value="«e&lt;i&gt;xecutable&lt;/i&gt;»&lt;br&gt;&lt;b&gt;User Interface&lt;/b&gt;" style="html=1;dropTarget=0;whiteSpace=wrap;fillColor=#f8cecc;strokeColor=#b85450;fillStyle=auto;gradientDirection=west;gradientColor=#ffebeb;rounded=1;" parent="1" vertex="1">
                    <mxGeometry x="150" y="400" width="140" height="70" as="geometry"/>
                </mxCell>
                <mxCell id="5" value="" style="shape=module;jettyWidth=8;jettyHeight=4;" parent="4" vertex="1">
                    <mxGeometry x="1" width="20" height="20" relative="1" as="geometry">
                        <mxPoint x="-27" y="7" as="offset"/>
                    </mxGeometry>
                </mxCell>
                <mxCell id="29" value="logs" style="edgeStyle=none;html=1;entryX=1;entryY=0.5;entryDx=0;entryDy=0;" edge="1" parent="1" source="6" target="10">
                    <mxGeometry x="-0.0769" y="-11" relative="1" as="geometry">
                        <mxPoint as="offset"/>
                    </mxGeometry>
                </mxCell>
                <mxCell id="31" style="edgeStyle=none;html=1;entryX=0.25;entryY=0;entryDx=0;entryDy=0;exitX=0.25;exitY=1;exitDx=0;exitDy=0;" edge="1" parent="1" source="6" target="8">
                    <mxGeometry relative="1" as="geometry"/>
                </mxCell>
                <mxCell id="46" value="timer configuration" style="edgeLabel;html=1;align=center;verticalAlign=middle;resizable=0;points=[];" vertex="1" connectable="0" parent="31">
                    <mxGeometry x="-0.2897" relative="1" as="geometry">
                        <mxPoint as="offset"/>
                    </mxGeometry>
                </mxCell>
                <mxCell id="33" style="edgeStyle=none;html=1;exitX=1;exitY=0.5;exitDx=0;exitDy=0;" edge="1" parent="1" source="6">
                    <mxGeometry relative="1" as="geometry">
                        <mxPoint x="580" y="570" as="targetPoint"/>
                    </mxGeometry>
                </mxCell>
                <mxCell id="44" value="animal specs" style="edgeLabel;html=1;align=center;verticalAlign=middle;resizable=0;points=[];" vertex="1" connectable="0" parent="33">
                    <mxGeometry x="-0.0402" y="1" relative="1" as="geometry">
                        <mxPoint y="-9" as="offset"/>
                    </mxGeometry>
                </mxCell>
                <mxCell id="34" style="edgeStyle=orthogonalEdgeStyle;html=1;exitX=0.25;exitY=0;exitDx=0;exitDy=0;entryX=1;entryY=0.75;entryDx=0;entryDy=0;dashed=1;" edge="1" parent="1" source="6" target="4">
                    <mxGeometry relative="1" as="geometry"/>
                </mxCell>
                <mxCell id="43" value="promts" style="edgeLabel;html=1;align=center;verticalAlign=middle;resizable=0;points=[];" vertex="1" connectable="0" parent="34">
                    <mxGeometry x="-0.5583" y="2" relative="1" as="geometry">
                        <mxPoint as="offset"/>
                    </mxGeometry>
                </mxCell>
                <mxCell id="6" value="«e&lt;i&gt;xecutable&lt;/i&gt;»&lt;br&gt;&lt;b&gt;MacDonal Farm&lt;/b&gt;" style="html=1;dropTarget=0;whiteSpace=wrap;fillColor=#f8cecc;strokeColor=#b85450;fillStyle=auto;gradientDirection=west;gradientColor=#ffebeb;rounded=1;" vertex="1" parent="1">
                    <mxGeometry x="355" y="535" width="140" height="70" as="geometry"/>
                </mxCell>
                <mxCell id="7" value="" style="shape=module;jettyWidth=8;jettyHeight=4;" vertex="1" parent="6">
                    <mxGeometry x="1" width="20" height="20" relative="1" as="geometry">
                        <mxPoint x="-27" y="7" as="offset"/>
                    </mxGeometry>
                </mxCell>
                <mxCell id="32" style="edgeStyle=none;html=1;exitX=0.75;exitY=0;exitDx=0;exitDy=0;entryX=0.75;entryY=1;entryDx=0;entryDy=0;dashed=1;" edge="1" parent="1" source="8" target="6">
                    <mxGeometry relative="1" as="geometry"/>
                </mxCell>
                <mxCell id="45" value="events callback" style="edgeLabel;html=1;align=center;verticalAlign=middle;resizable=0;points=[];" vertex="1" connectable="0" parent="32">
                    <mxGeometry x="0.3291" y="-3" relative="1" as="geometry">
                        <mxPoint y="21" as="offset"/>
                    </mxGeometry>
                </mxCell>
                <mxCell id="8" value="«e&lt;i&gt;xecutable&lt;/i&gt;»&lt;br&gt;&lt;b&gt;Time Manager&lt;/b&gt;" style="html=1;dropTarget=0;whiteSpace=wrap;fillColor=#f8cecc;strokeColor=#b85450;fillStyle=auto;gradientDirection=west;gradientColor=#ffebeb;rounded=1;" vertex="1" parent="1">
                    <mxGeometry x="355" y="675" width="140" height="70" as="geometry"/>
                </mxCell>
                <mxCell id="9" value="" style="shape=module;jettyWidth=8;jettyHeight=4;" vertex="1" parent="8">
                    <mxGeometry x="1" width="20" height="20" relative="1" as="geometry">
                        <mxPoint x="-27" y="7" as="offset"/>
                    </mxGeometry>
                </mxCell>
                <mxCell id="30" value="logs &amp;amp;&lt;br&gt;commands" style="edgeStyle=none;html=1;entryX=0.5;entryY=0;entryDx=0;entryDy=0;" edge="1" parent="1" source="10" target="12">
                    <mxGeometry relative="1" as="geometry"/>
                </mxCell>
                <mxCell id="10" value="«library»&lt;br&gt;&lt;b&gt;Logger&lt;/b&gt;" style="html=1;dropTarget=0;whiteSpace=wrap;fillColor=#f8cecc;strokeColor=#b85450;fillStyle=auto;gradientDirection=west;gradientColor=#ffebeb;rounded=1;" vertex="1" parent="1">
                    <mxGeometry x="150" y="535" width="140" height="70" as="geometry"/>
                </mxCell>
                <mxCell id="11" value="" style="shape=module;jettyWidth=8;jettyHeight=4;" vertex="1" parent="10">
                    <mxGeometry x="1" width="20" height="20" relative="1" as="geometry">
                        <mxPoint x="-27" y="7" as="offset"/>
                    </mxGeometry>
                </mxCell>
                <mxCell id="12" value="«library»&lt;br&gt;&lt;b&gt;DLT Library&lt;/b&gt;" style="html=1;dropTarget=0;whiteSpace=wrap;fillColor=#f8cecc;strokeColor=#b85450;fillStyle=auto;gradientDirection=west;gradientColor=#ffebeb;rounded=1;" vertex="1" parent="1">
                    <mxGeometry x="150" y="675" width="140" height="70" as="geometry"/>
                </mxCell>
                <mxCell id="13" value="" style="shape=module;jettyWidth=8;jettyHeight=4;" vertex="1" parent="12">
                    <mxGeometry x="1" width="20" height="20" relative="1" as="geometry">
                        <mxPoint x="-27" y="7" as="offset"/>
                    </mxGeometry>
                </mxCell>
                <mxCell id="26" value="User" style="shape=umlActor;verticalLabelPosition=bottom;verticalAlign=top;html=1;fillColor=#fff2cc;strokeColor=#f40b51;" vertex="1" parent="1">
                    <mxGeometry x="-70" y="405" width="30" height="60" as="geometry"/>
                </mxCell>
                <mxCell id="28" value="" style="group" vertex="1" connectable="0" parent="1">
                    <mxGeometry x="580" y="440" width="380" height="260" as="geometry"/>
                </mxCell>
                <mxCell id="16" value="&lt;p style=&quot;margin:0px;margin-top:6px;text-align:center;&quot;&gt;&lt;b&gt;Animal&lt;/b&gt;&lt;/p&gt;&lt;hr&gt;&lt;p style=&quot;margin:0px;margin-left:8px;&quot;&gt;&lt;br&gt;&lt;br&gt;&lt;/p&gt;" style="align=left;overflow=fill;html=1;dropTarget=0;" vertex="1" parent="28">
                    <mxGeometry width="380" height="260" as="geometry"/>
                </mxCell>
                <mxCell id="17" value="" style="shape=component;jettyWidth=8;jettyHeight=4;" vertex="1" parent="16">
                    <mxGeometry x="1" width="20" height="20" relative="1" as="geometry">
                        <mxPoint x="-24" y="4" as="offset"/>
                    </mxGeometry>
                </mxCell>
                <mxCell id="18" value="«library»&lt;br&gt;&lt;b&gt;Dog&lt;/b&gt;" style="html=1;dropTarget=0;whiteSpace=wrap;fillColor=#f8cecc;strokeColor=#b85450;fillStyle=auto;gradientDirection=west;gradientColor=#ffebeb;rounded=1;" vertex="1" parent="28">
                    <mxGeometry x="30" y="60" width="140" height="70" as="geometry"/>
                </mxCell>
                <mxCell id="19" value="" style="shape=module;jettyWidth=8;jettyHeight=4;" vertex="1" parent="18">
                    <mxGeometry x="1" width="20" height="20" relative="1" as="geometry">
                        <mxPoint x="-27" y="7" as="offset"/>
                    </mxGeometry>
                </mxCell>
                <mxCell id="20" value="«library»&lt;br&gt;&lt;b&gt;Pig&lt;/b&gt;" style="html=1;dropTarget=0;whiteSpace=wrap;fillColor=#f8cecc;strokeColor=#b85450;fillStyle=auto;gradientDirection=west;gradientColor=#ffebeb;rounded=1;" vertex="1" parent="28">
                    <mxGeometry x="30" y="160" width="140" height="70" as="geometry"/>
                </mxCell>
                <mxCell id="21" value="" style="shape=module;jettyWidth=8;jettyHeight=4;" vertex="1" parent="20">
                    <mxGeometry x="1" width="20" height="20" relative="1" as="geometry">
                        <mxPoint x="-27" y="7" as="offset"/>
                    </mxGeometry>
                </mxCell>
                <mxCell id="22" value="«library»&lt;br&gt;&lt;b&gt;Cat&lt;/b&gt;" style="html=1;dropTarget=0;whiteSpace=wrap;fillColor=#f8cecc;strokeColor=#b85450;fillStyle=auto;gradientDirection=west;gradientColor=#ffebeb;rounded=1;" vertex="1" parent="28">
                    <mxGeometry x="210" y="160" width="140" height="70" as="geometry"/>
                </mxCell>
                <mxCell id="23" value="" style="shape=module;jettyWidth=8;jettyHeight=4;" vertex="1" parent="22">
                    <mxGeometry x="1" width="20" height="20" relative="1" as="geometry">
                        <mxPoint x="-27" y="7" as="offset"/>
                    </mxGeometry>
                </mxCell>
                <mxCell id="24" value="«library»&lt;br&gt;&lt;b&gt;Chicken&lt;/b&gt;" style="html=1;dropTarget=0;whiteSpace=wrap;fillColor=#f8cecc;strokeColor=#b85450;fillStyle=auto;gradientDirection=west;gradientColor=#ffebeb;rounded=1;" vertex="1" parent="28">
                    <mxGeometry x="210" y="60" width="140" height="70" as="geometry"/>
                </mxCell>
                <mxCell id="25" value="" style="shape=module;jettyWidth=8;jettyHeight=4;" vertex="1" parent="24">
                    <mxGeometry x="1" width="20" height="20" relative="1" as="geometry">
                        <mxPoint x="-27" y="7" as="offset"/>
                    </mxGeometry>
                </mxCell>
                <mxCell id="36" value="" style="rounded=0;orthogonalLoop=1;jettySize=auto;html=1;endArrow=none;endFill=0;sketch=0;sourcePerimeterSpacing=0;targetPerimeterSpacing=0;exitX=0;exitY=0.5;exitDx=0;exitDy=0;" edge="1" target="38" parent="1" source="4">
                    <mxGeometry relative="1" as="geometry">
                        <mxPoint x="240" y="555" as="sourcePoint"/>
                    </mxGeometry>
                </mxCell>
                <mxCell id="37" value="" style="rounded=0;orthogonalLoop=1;jettySize=auto;html=1;endArrow=halfCircle;endFill=0;endSize=6;strokeWidth=1;sketch=0;" edge="1" parent="1">
                    <mxGeometry relative="1" as="geometry">
                        <mxPoint x="20" y="434.8" as="sourcePoint"/>
                        <mxPoint x="70" y="434.8" as="targetPoint"/>
                    </mxGeometry>
                </mxCell>
                <mxCell id="38" value="" style="ellipse;whiteSpace=wrap;html=1;align=center;aspect=fixed;resizable=0;points=[];outlineConnect=0;sketch=0;strokeColor=#f40b51;" vertex="1" parent="1">
                    <mxGeometry x="66" y="430" width="10" height="10" as="geometry"/>
                </mxCell>
                <mxCell id="39" value="" style="rounded=0;orthogonalLoop=1;jettySize=auto;html=1;endArrow=halfCircle;endFill=0;endSize=6;strokeWidth=1;sketch=0;exitX=0.088;exitY=0.205;exitDx=0;exitDy=0;exitPerimeter=0;" edge="1" parent="1" source="2">
                    <mxGeometry relative="1" as="geometry">
                        <mxPoint x="20" y="434.8" as="sourcePoint"/>
                        <mxPoint x="70" y="434.8" as="targetPoint"/>
                    </mxGeometry>
                </mxCell>
                <mxCell id="40" value="commands &amp;amp;&lt;br&gt;promts" style="text;html=1;align=center;verticalAlign=middle;resizable=0;points=[];autosize=1;strokeColor=none;fillColor=none;" vertex="1" parent="1">
                    <mxGeometry x="-30" y="390" width="90" height="40" as="geometry"/>
                </mxCell>
                <mxCell id="41" value="Commad Line" style="text;html=1;align=center;verticalAlign=middle;resizable=0;points=[];autosize=1;strokeColor=none;fillColor=none;" vertex="1" parent="1">
                    <mxGeometry x="25" y="440" width="100" height="30" as="geometry"/>
                </mxCell>
                <mxCell id="48" value="" style="rounded=0;orthogonalLoop=1;jettySize=auto;html=1;endArrow=halfCircle;endFill=0;entryX=0.5;entryY=0.5;endSize=6;strokeWidth=1;sketch=0;exitX=0.5;exitY=1;exitDx=0;exitDy=0;" edge="1" target="49" parent="1" source="12">
                    <mxGeometry relative="1" as="geometry">
                        <mxPoint x="270" y="705" as="sourcePoint"/>
                    </mxGeometry>
                </mxCell>
                <mxCell id="49" value="" style="ellipse;whiteSpace=wrap;html=1;align=center;aspect=fixed;resizable=0;points=[];outlineConnect=0;sketch=0;strokeColor=#f40b51;" vertex="1" parent="1">
                    <mxGeometry x="215" y="800" width="10" height="10" as="geometry"/>
                </mxCell>
                <mxCell id="51" value="TCP/IP" style="text;html=1;align=center;verticalAlign=middle;resizable=0;points=[];autosize=1;strokeColor=none;fillColor=none;" vertex="1" parent="1">
                    <mxGeometry x="215" y="760" width="60" height="30" as="geometry"/>
                </mxCell>
                <mxCell id="52" value="dlt-daemon interface" style="text;html=1;align=center;verticalAlign=middle;resizable=0;points=[];autosize=1;strokeColor=none;fillColor=none;" vertex="1" parent="1">
                    <mxGeometry x="160" y="810" width="130" height="30" as="geometry"/>
                </mxCell>
            </root>
        </mxGraphModel>
    </diagram>
</mxfile>